<svg width="80" height="20" viewBox="0 0 80 20" fill="none" xmlns="http://www.w3.org/2000/svg">
    <g clip-path="url(#clip0_1175_91933)">
        <g clip-path="url(#clip1_1175_91933)">
            <path d="M2.24744 4.95329C3.51901 4.95329 4.49487 3.99764 4.49487 2.726C4.49487 1.45437 3.51773 0.5 2.24744 0.5C0.977146 0.5 0 1.45565 0 2.72729C0 3.99892 0.974575 4.95458 2.24744 4.95458V4.95329Z" fill="#EC7000"/>
            <path d="M4.13075 18.9644V6.69507H3.6846C1.60174 6.69507 0.362305 7.92175 0.362305 9.98205V18.9619H4.13203L4.13075 18.9644Z" fill="#EC7000"/>
            <path d="M12.8159 19.2713C14.792 19.2713 16.3992 18.6547 17.8327 17.5681L16.2513 14.8039C15.2124 15.5694 14.0759 15.9394 13.0151 15.9394C11.1624 15.9394 9.80213 14.8527 9.80213 12.8052C9.80213 10.8798 11.0866 9.76871 12.965 9.76871C14.027 9.76871 15.0402 10.163 15.98 10.7809L17.6592 7.91777C16.2012 6.95441 14.5953 6.43677 12.767 6.43677C8.7877 6.43677 5.99512 9.00444 5.99512 12.854C5.99512 16.7036 8.8867 19.2726 12.8159 19.2726" fill="#EC7000"/>
            <path d="M38.0791 19.0249V10.7451C38.0791 10.4099 38.3517 10.1388 38.686 10.1388H42.7977V6.68359H37.633C35.5566 6.68359 34.3223 7.91798 34.3223 9.99113V19.0262H38.0791V19.0249Z" fill="#EC7000"/>
            <path d="M48.3975 19.0249V10.7451C48.3975 10.4099 48.6701 10.1388 49.0044 10.1388H53.1161V6.68359H47.9514C45.8762 6.68359 44.6406 7.91798 44.6406 9.99113V19.0262H48.3975V19.0249Z" fill="#EC7000"/>
            <path d="M74.3416 19.2715C77.9249 19.2715 80 17.6428 80 15.2228C80 10.311 73.1549 11.792 73.1549 10.0386C73.1549 9.42209 73.7232 9.19859 74.7119 9.19859C75.8986 9.19859 77.2319 9.59293 78.3196 10.2108L79.604 7.61868C78.2206 6.87754 76.5646 6.43311 74.663 6.43311C71.9694 6.43311 69.3504 7.74199 69.3504 10.4086C69.3504 15.3204 76.1956 13.7161 76.1956 15.5683C76.1956 16.3339 75.3046 16.5073 74.294 16.5073C72.9594 16.5073 71.5014 16.014 70.3404 15.2241L69.0059 17.8162C70.5629 18.7294 72.4644 19.2728 74.3442 19.2728H74.3429L74.3416 19.2715Z" fill="#EC7000"/>
            <path d="M60.9987 6.43555C57.1441 6.43555 54.3516 9.00322 54.3516 12.8528C54.3516 16.7024 57.1441 19.2714 60.9987 19.2714C64.8533 19.2714 67.6459 16.7037 67.6459 12.8528C67.6459 9.00194 64.8533 6.43555 60.9987 6.43555V6.43555ZM60.9987 16.1115C59.3929 16.1115 58.1573 14.9016 58.1573 12.804C58.1573 10.8298 59.3183 9.59408 60.9987 9.59408C62.6792 9.59408 63.8402 10.8041 63.8402 12.9016C63.8402 14.8759 62.6779 16.1115 60.9987 16.1115Z" fill="#EC7000"/>
            <path d="M28.2591 6.68217V8.48429H28.2103C27.6677 7.34881 26.3575 6.43555 24.4778 6.43555C21.5129 6.43555 18.7705 8.73091 18.7705 12.8528C18.7705 16.9747 21.4641 19.2714 24.3801 19.2714C26.2328 19.2726 27.6163 18.3594 28.2115 17.2239H28.2604V19.026H31.9671V6.68217H28.2604H28.2591ZM25.419 16.1128C23.8131 16.1128 22.5775 14.9028 22.5775 12.8053C22.5775 10.831 23.7398 9.59537 25.419 9.59537C27.0981 9.59537 28.2604 10.8053 28.2604 12.9029C28.2604 14.8772 27.0994 16.1128 25.419 16.1128Z" fill="#EC7000"/>
        </g>
    </g>
    <defs>
        <clipPath id="clip0_1175_91933">
            <rect width="80" height="19" fill="white" transform="translate(0 0.5)"/>
        </clipPath>
        <clipPath id="clip1_1175_91933">
            <rect width="80" height="19.375" fill="white" transform="translate(0 0.5)"/>
        </clipPath>
    </defs>
</svg>
